<svg xmlns="http://www.w3.org/2000/svg" viewBox="0 0 556.49 556.71"><g id="Layer_2" data-name="Layer 2"><g id="Layer_1-2" data-name="Layer 1"><g style="opacity:0.30000000000000004"><line x1="0.4" y1="0.4" x2="0.4" y2="556.31" style="fill:none;stroke:#ddd;stroke-miterlimit:10;stroke-width:0.7955737113952637px"/><line x1="50.92" y1="0.4" x2="50.92" y2="556.31" style="fill:none;stroke:#ddd;stroke-miterlimit:10;stroke-width:0.7955737113952637px"/><line x1="101.43" y1="0.4" x2="101.43" y2="556.31" style="fill:none;stroke:#ddd;stroke-miterlimit:10;stroke-width:0.7955737113952637px"/><line x1="151.95" y1="0.4" x2="151.95" y2="556.31" style="fill:none;stroke:#ddd;stroke-miterlimit:10;stroke-width:0.7955737113952637px"/><line x1="202.47" y1="0.4" x2="202.47" y2="556.31" style="fill:none;stroke:#ddd;stroke-miterlimit:10;stroke-width:0.7955737113952637px"/><line x1="252.99" y1="0.4" x2="252.99" y2="556.31" style="fill:none;stroke:#ddd;stroke-miterlimit:10;stroke-width:0.7955737113952637px"/><line x1="303.51" y1="0.4" x2="303.51" y2="556.31" style="fill:none;stroke:#ddd;stroke-miterlimit:10;stroke-width:0.7955737113952637px"/><line x1="354.02" y1="0.4" x2="354.02" y2="556.31" style="fill:none;stroke:#ddd;stroke-miterlimit:10;stroke-width:0.7955737113952637px"/><line x1="404.54" y1="0.4" x2="404.54" y2="556.31" style="fill:none;stroke:#ddd;stroke-miterlimit:10;stroke-width:0.7955737113952637px"/><line x1="455.06" y1="0.4" x2="455.06" y2="556.31" style="fill:none;stroke:#ddd;stroke-miterlimit:10;stroke-width:0.7955737113952637px"/><line x1="505.58" y1="0.4" x2="505.58" y2="556.31" style="fill:none;stroke:#ddd;stroke-miterlimit:10;stroke-width:0.7955737113952637px"/><line x1="556.1" y1="0.4" x2="556.1" y2="556.31" style="fill:none;stroke:#ddd;stroke-miterlimit:10;stroke-width:0.7955737113952637px"/><line x1="0.4" y1="556.31" x2="556.2" y2="556.31" style="fill:none;stroke:#ddd;stroke-miterlimit:10;stroke-width:0.7955737113952637px"/><line x1="0.4" y1="505.78" x2="556.2" y2="505.78" style="fill:none;stroke:#ddd;stroke-miterlimit:10;stroke-width:0.7955737113952637px"/><line x1="0.4" y1="455.24" x2="556.2" y2="455.24" style="fill:none;stroke:#ddd;stroke-miterlimit:10;stroke-width:0.7955737113952637px"/><line x1="0.4" y1="404.7" x2="556.2" y2="404.7" style="fill:none;stroke:#ddd;stroke-miterlimit:10;stroke-width:0.7955737113952637px"/><line x1="0.4" y1="354.16" x2="556.2" y2="354.16" style="fill:none;stroke:#ddd;stroke-miterlimit:10;stroke-width:0.7955737113952637px"/><line x1="0.4" y1="303.62" x2="556.21" y2="303.62" style="fill:none;stroke:#ddd;stroke-miterlimit:10;stroke-width:0.7955737113952637px"/><line x1="0.4" y1="253.09" x2="556.21" y2="253.09" style="fill:none;stroke:#ddd;stroke-miterlimit:10;stroke-width:0.7955737113952637px"/><line x1="0.4" y1="202.55" x2="556.21" y2="202.55" style="fill:none;stroke:#ddd;stroke-miterlimit:10;stroke-width:0.7955737113952637px"/><line x1="0.4" y1="152.01" x2="556.21" y2="152.01" style="fill:none;stroke:#ddd;stroke-miterlimit:10;stroke-width:0.7955737113952637px"/><line x1="0.4" y1="101.47" x2="556.21" y2="101.47" style="fill:none;stroke:#ddd;stroke-miterlimit:10;stroke-width:0.7955737113952637px"/><line x1="0.4" y1="50.94" x2="556.21" y2="50.94" style="fill:none;stroke:#ddd;stroke-miterlimit:10;stroke-width:0.7955737113952637px"/><line x1="0.4" y1="0.4" x2="556.21" y2="0.4" style="fill:none;stroke:#ddd;stroke-miterlimit:10;stroke-width:0.7955737113952637px"/></g></g></g></svg>